<svg id="Layer_1" data-name="Layer 1" xmlns="http://www.w3.org/2000/svg" viewBox="0 0 61 54"><defs><style>.cls-1{fill:none;stroke:#000;stroke-miterlimit:10;stroke-width:2px;}.cls-2{isolation:isolate;}</style></defs><title>job-icons</title><path class="cls-1" d="M2,26.79v-22a2.91,2.91,0,0,1,2.9-2.9H56.1A2.92,2.92,0,0,1,59,4.78V40.55a2.92,2.92,0,0,1-2.9,2.9H18.4"/><line class="cls-1" x1="18.4" y1="32.82" x2="53.2" y2="32.82"/><circle cx="30.97" cy="38.62" r="1.45"/><circle cx="8.25" cy="47.8" r="0.97"/><path d="M13.5,31V51.12H3V31H13.5m0-2H3a2,2,0,0,0-2,2V51.12a2,2,0,0,0,2,2H13.5a2,2,0,0,0,2-2V31a2,2,0,0,0-2-2Z"/><rect class="cls-1" x="25.17" y="43.45" width="10.63" height="8.7"/><line class="cls-1" x1="20.33" y1="52.15" x2="40.63" y2="52.15"/></svg>